<svg width="30" height="30" viewBox="0 0 30 30" fill="none" xmlns="http://www.w3.org/2000/svg">
<path d="M15.006 29.9997C15.006 29.9997 15.0022 29.9997 14.9936 29.9997C14.4925 29.9997 -1.35587 29.919 0.0942142 20.9424C0.103704 20.8799 0.114143 20.8174 0.125531 20.754C0.147359 20.6349 0.172982 20.5138 0.201452 20.3908C0.255545 20.1583 0.310588 19.9267 0.366579 19.6942C0.402641 19.5462 0.438704 19.3982 0.475715 19.2512C0.509879 19.1147 0.544043 18.9783 0.579157 18.8409C0.612372 18.7112 0.645587 18.5815 0.679751 18.4527C0.6807 18.4479 0.682598 18.444 0.683547 18.4392C0.747131 18.1971 0.812612 17.955 0.880941 17.7138C0.889482 17.6811 0.898023 17.6484 0.907513 17.6158C1.40195 15.8487 1.98748 14.1075 2.70493 12.4221C3.48786 10.5859 4.47388 8.93506 5.61933 7.30827C7.28389 4.94544 9.25118 2.35968 11.7537 0.855885C12.7198 0.274546 13.8681 -0.0905927 15.0003 0.0189489C16.1324 -0.0905927 17.2798 0.274546 18.2459 0.855885C20.7484 2.35968 22.7157 4.94544 24.3802 7.30827C25.5257 8.93506 26.5117 10.5859 27.2937 12.4221C28.182 14.5044 28.8662 16.6722 29.4271 18.8697C29.4859 19.0975 29.5428 19.3261 29.5988 19.5548C29.6007 19.5596 29.6017 19.5644 29.6026 19.5692C29.6349 19.7019 29.6672 19.8345 29.6985 19.9671C29.7127 20.0276 29.7279 20.0872 29.7412 20.1477C29.7611 20.2284 29.7791 20.3101 29.7981 20.3908C31.9979 29.9161 15.5175 29.9997 15.006 29.9997Z" fill="url(#paint0_radial)"/>
<circle cx="19.0002" cy="8.00006" r="2" fill="#D7D9FF"/>
<path d="M15.0057 29.9998C15.0057 29.9998 15.0019 29.9998 14.9934 29.9998C14.4923 29.9998 -1.35611 29.9191 0.0939701 20.9424C0.10346 20.88 0.113899 20.8175 0.125287 20.7541C0.147114 20.6349 0.172738 20.5139 0.201208 20.3909C0.255301 20.1583 0.310344 19.9268 0.366335 19.6942C0.402397 19.5462 0.43846 19.3983 0.475471 19.2512C0.509635 19.1148 0.543799 18.9784 0.578913 18.8409C0.612128 18.7112 0.645343 18.5815 0.679507 18.4527C0.680456 18.4479 0.682354 18.4441 0.683303 18.4393C0.746887 18.1971 0.812368 17.955 0.880697 17.7138C0.91581 17.6869 0.951872 17.66 0.986986 17.6331C2.65724 16.3686 4.60745 14.6486 5.12371 13.1842C6.7019 8.71027 9.83837 11.2614 11.1129 12.5644C11.5181 12.9785 12.1502 13.0612 12.6408 12.7566C13.3022 12.3453 14.2218 11.5516 15.13 10.0363C15.8076 8.90629 17.215 8.45947 18.3908 9.03313C20.2917 9.96135 23.4955 12.3367 28.754 18.0847C28.9969 18.3509 29.2218 18.6123 29.4268 18.8698C29.4857 19.0975 29.5426 19.3262 29.5986 19.5549C29.6005 19.5597 29.6014 19.5645 29.6024 19.5693C29.6347 19.7019 29.6669 19.8345 29.6982 19.9671C29.7125 20.0276 29.7277 20.0872 29.7409 20.1478C29.7609 20.2285 29.7789 20.3101 29.7979 20.3909C31.9977 29.9162 15.5172 29.9998 15.0057 29.9998Z" fill="#8589EB"/>
<path opacity="0.15" d="M15.0057 30C15.0057 30 15.0019 30 14.9934 30C14.4923 30 -1.35611 29.9193 0.0939701 20.9426C0.10346 20.8802 0.113899 20.8177 0.125287 20.7543C0.147114 20.6352 0.172738 20.5141 0.201208 20.3911C0.255301 20.1586 0.310344 19.927 0.366335 19.6944C0.402397 19.5465 0.43846 19.3985 0.475471 19.2515C1.23752 19.0929 2.0717 19.1986 2.70089 20.0183C2.76353 20.099 2.82616 20.1787 2.89069 20.2566C3.2219 20.6563 3.58442 21.0109 3.98869 21.2838C4.27719 21.4788 4.58657 21.6326 4.92157 21.7315C5.51944 21.9093 6.19893 21.9131 6.98091 21.671C7.95934 21.3693 9.0991 20.6822 10.4448 19.4667C14.48 15.822 20.1512 18.4722 22.0046 20.9023C23.1662 22.4243 25.59 22.0976 27.1777 21.6335C27.4614 21.5509 27.7414 21.4577 28.0138 21.3491C28.2738 21.2453 28.5281 21.1291 28.773 20.9945C28.8261 20.9657 28.8792 20.9359 28.9314 20.9052C29.0757 20.8206 29.2161 20.7303 29.3537 20.6323C29.48 20.542 29.6071 20.442 29.6793 20.3036C29.7058 20.2546 29.7239 20.2018 29.7409 20.148C29.7609 20.2287 29.7789 20.3104 29.7979 20.3911C31.9977 29.9164 15.5172 30 15.0057 30Z" fill="white"/>
<path opacity="0.15" d="M15.0057 30.0001C15.0057 30.0001 15.0019 30.0001 14.9934 30.0001C14.4923 30.0001 -1.35611 29.9194 0.0939701 20.9427C0.10346 20.8802 0.113899 20.8178 0.125287 20.7544C0.147114 20.6352 0.172738 20.5141 0.201208 20.3911C0.255301 20.1586 0.310344 19.927 0.366335 19.6945C0.402397 19.5465 0.43846 19.3985 0.475471 19.2515C0.509635 19.1151 0.543799 18.9786 0.578913 18.8412C0.612128 18.7115 0.645343 18.5818 0.679507 18.453C0.680456 18.4482 0.682354 18.4444 0.683303 18.4396C0.746887 18.1974 0.812368 17.9553 0.880697 17.7141C0.889238 17.6814 0.897779 17.6488 0.907269 17.6161C0.933841 17.6219 0.960413 17.6276 0.986986 17.6334C1.36849 17.7227 1.74809 17.8967 2.11441 18.184C2.70089 18.6442 3.25321 19.3947 3.72012 20.5507C3.79889 20.7448 3.87576 20.9513 3.94884 21.1695C3.96212 21.2079 3.97446 21.2454 3.98869 21.2838C4.40531 22.4744 5.09903 23.7226 6.2777 24.2366C6.39348 24.2876 6.51495 24.3308 6.64022 24.3664C8.17097 24.7997 9.9105 23.9541 11.0987 23.025C11.4811 22.7261 11.8351 22.3888 12.2365 22.1179C14.9175 20.3066 18.239 23.0413 19.8504 25.039C19.9254 25.1322 19.9994 25.2264 20.0725 25.3205C20.3477 25.677 20.6305 25.9586 20.919 26.1709C23.4595 28.0533 26.4033 24.6671 28.3393 21.6826C28.4911 21.45 28.6354 21.2194 28.773 20.9946C28.9865 20.6477 29.1829 20.3133 29.3613 20.0001C29.4373 19.8665 29.5094 19.7368 29.5787 19.6128C29.5863 19.5984 29.5948 19.584 29.6024 19.5696C29.6347 19.7022 29.6669 19.8348 29.6982 19.9674C29.7125 20.0279 29.7277 20.0875 29.7409 20.148C29.7609 20.2288 29.7789 20.3104 29.7979 20.3911C31.9977 29.9165 15.5172 30.0001 15.0057 30.0001Z" fill="white"/>
<path opacity="0.15" d="M15.0057 30C15.0057 30 15.0019 30 14.9934 30C14.4923 30 -1.35611 29.9193 0.0939701 20.9426C0.797184 20.5256 1.84489 20.075 2.89069 20.2566C3.1697 20.3056 3.44871 20.3988 3.72012 20.5506C4.14528 20.787 4.5543 21.1646 4.92157 21.7315C5.13035 22.0534 5.32584 22.4368 5.50331 22.8894C5.69501 23.3814 5.95219 23.8464 6.2777 24.2366C6.79491 24.8573 7.48484 25.2878 8.36077 25.3368C9.75676 25.4146 11.0313 24.6719 12.1388 23.9079C14.6574 22.1716 16.8031 25.3176 19.3588 25.9642C19.9016 26.1017 20.4217 26.166 20.919 26.1708C23.7679 26.2006 25.8595 24.2635 27.0695 22.7232C27.4946 22.1822 27.8116 21.6902 28.0138 21.3491C28.1893 21.0531 28.2795 20.8715 28.2795 20.8715C28.2795 20.8715 28.6961 20.1634 29.3613 20C29.3832 19.9933 29.4059 19.9885 29.4287 19.9846C29.5151 19.9683 29.6052 19.9625 29.6982 19.9673C29.7125 20.0279 29.7277 20.0874 29.7409 20.148C29.7609 20.2287 29.7789 20.3104 29.7979 20.3911C31.9977 29.9164 15.5172 30 15.0057 30Z" fill="white"/>
<path opacity="0.15" d="M15.0057 30.0001C15.0057 30.0001 15.0019 30.0001 14.9934 30.0001C14.4923 30.0001 -1.35611 29.9194 0.0939701 20.9427C0.10346 20.8802 0.113899 20.8178 0.125287 20.7544C0.147114 20.6352 0.172738 20.5141 0.201208 20.3912C0.255301 20.1586 0.310344 19.927 0.366335 19.6945C0.402397 19.5465 0.43846 19.3985 0.475471 19.2515C0.509635 19.1151 0.543799 18.9786 0.578913 18.8412C0.612128 18.7115 0.645343 18.5818 0.679507 18.453C0.680456 18.4482 0.682354 18.4444 0.683303 18.4396C1.15021 18.306 1.63611 18.2099 2.11441 18.184C3.42404 18.1119 4.67388 18.5645 5.31351 20.199C5.63617 21.0244 6.22076 21.451 6.98091 21.6711C7.39373 21.7912 7.85779 21.8498 8.36077 21.8776C9.75676 21.9555 10.8889 20.9379 12.1388 20.4488C17.9353 18.1811 19.4594 21.844 21.9211 22.7934C24.2206 23.6803 25.888 23.4016 27.0695 22.7232C27.5801 22.4302 27.9995 22.0631 28.3393 21.6826C28.5727 21.4231 28.7682 21.157 28.9314 20.9052C29.1573 20.5545 29.3205 20.2307 29.4287 19.9847C29.5018 19.8204 29.5511 19.6916 29.5787 19.6128C29.5872 19.5888 29.5938 19.5696 29.5986 19.5552C29.6005 19.56 29.6014 19.5648 29.6024 19.5696C29.6347 19.7022 29.6669 19.8348 29.6982 19.9674C29.7125 20.0279 29.7277 20.0875 29.7409 20.148C29.7609 20.2288 29.7789 20.3104 29.7979 20.3912C31.9977 29.9165 15.5172 30.0001 15.0057 30.0001Z" fill="white"/>
<defs>
<radialGradient id="paint0_radial" cx="0" cy="0" r="1" gradientUnits="userSpaceOnUse" gradientTransform="translate(15.0001 14.9998) scale(14.9075 15.0942)">
<stop offset="2.23767e-07" stop-color="#8485E0"/>
<stop offset="1" stop-color="#7680FC"/>
</radialGradient>
</defs>
</svg>
