<svg width="23" height="12" viewBox="0 0 23 12" fill="none" xmlns="http://www.w3.org/2000/svg">
<path d="M18.8553 3.09866C19.5678 2.21076 19.9035 1.51123 19.9035 1.51123L18.8553 3.09866ZM18.8553 3.09866C18.1776 3.94331 17.1591 4.95852 15.7645 5.70412M18.8553 3.09866L15.7645 5.70412M18.8553 3.09866L22 4.6559M11.5177 6.75234C9.8322 6.75234 8.42324 6.32026 7.27099 5.70412M11.5177 6.75234L7.27099 5.70412M11.5177 6.75234C13.2033 6.75234 14.6122 6.32026 15.7645 5.70412M11.5177 6.75234L15.7645 5.70412M11.5177 6.75234V10.4211M7.27099 5.70412L4.18019 8.84878M7.27099 5.70412C5.95084 4.99824 4.96765 4.05086 4.29159 3.23535M7.27099 5.70412L4.29159 3.23535M15.7645 5.70412L18.3312 8.84878M4.29159 3.23535C3.50269 2.28358 3.13197 1.51123 3.13197 1.51123L4.29159 3.23535ZM4.29159 3.23535L1.03552 4.6559" stroke="#3F414E" stroke-width="2" stroke-linecap="round" stroke-linejoin="round"/>
</svg>
