<svg width="24" height="25" viewBox="0 0 24 25" fill="none" xmlns="http://www.w3.org/2000/svg">
<path d="M23.6496 13.2334C23.6496 12.2441 23.5693 11.5221 23.3955 10.7734H12.0984V15.2388H18.7296C18.5959 16.3485 17.874 18.0196 16.2696 19.1426L16.2471 19.2921L19.8191 22.0592L20.0665 22.0839C22.3393 19.9849 23.6496 16.8966 23.6496 13.2334Z" fill="#4285F4"/>
<path d="M12.0984 24.9984C15.3471 24.9984 18.0744 23.9288 20.0665 22.0839L16.2696 19.1425C15.2536 19.8511 13.8899 20.3458 12.0984 20.3458C8.9165 20.3458 6.2159 18.2469 5.25321 15.3457L5.1121 15.3577L1.39794 18.2321L1.34937 18.3671C3.32802 22.2977 7.39232 24.9984 12.0984 24.9984Z" fill="#34A853"/>
<path d="M5.25319 15.3457C4.99918 14.597 4.85217 13.7948 4.85217 12.9659C4.85217 12.137 4.99918 11.3348 5.23983 10.5862L5.2331 10.4267L1.47239 7.5061L1.34935 7.56463C0.533852 9.19572 0.065918 11.0274 0.065918 12.9659C0.065918 14.9045 0.533852 16.736 1.34935 18.3671L5.25319 15.3457Z" fill="#FBBC05"/>
<path d="M12.0988 5.58611C14.3582 5.58611 15.8822 6.56208 16.7513 7.37767L20.1471 4.06203C18.0615 2.12348 15.3475 0.933594 12.0988 0.933594C7.39269 0.933594 3.32838 3.63419 1.34973 7.56477L5.24021 10.5863C6.21626 7.68514 8.91686 5.58611 12.0988 5.58611Z" fill="#EB4335"/>
</svg>
