<svg width="333" height="243" viewBox="0 0 333 243" fill="none" xmlns="http://www.w3.org/2000/svg">
<path d="M170.047 240.597C209.273 240.597 241.073 239.357 241.073 237.827C241.073 236.297 209.273 235.057 170.047 235.057C130.82 235.057 99.0208 236.297 99.0208 237.827C99.0208 239.357 130.82 240.597 170.047 240.597Z" fill="#F9F0E3"/>
<path opacity="0.5" d="M45.0867 235.93C69.9874 235.93 90.1734 234.396 90.1734 232.505C90.1734 230.614 69.9874 229.081 45.0867 229.081C20.186 229.081 0 230.614 0 232.505C0 234.396 20.186 235.93 45.0867 235.93Z" fill="#F9EAD4"/>
<path d="M328.464 240.604C328.464 241.76 313.115 242.691 294.179 242.691C275.242 242.691 259.893 241.76 259.893 240.604C259.893 239.448 275.242 238.518 294.179 238.518C313.108 238.518 328.464 239.448 328.464 240.604Z" fill="#F9F0E3"/>
<path d="M245.373 74.824L243.789 77.5575H246.949L245.373 74.824Z" fill="#E7CCA8"/>
<path d="M245.373 79.8403L243.789 82.5739H246.949L245.373 79.8403Z" fill="#E7CCA8"/>
<path d="M248.649 76.8813L247.182 79.8403H250.109L248.649 76.8813Z" fill="#E7CCA8"/>
<path d="M7.42361 91.1307L5.84009 93.8716H8.99986L7.42361 91.1307Z" fill="#E7CCA8"/>
<path d="M7.42361 96.1472L5.84009 98.8808H8.99986L7.42361 96.1472Z" fill="#E7CCA8"/>
<path d="M10.6996 93.1882L9.2323 96.1472H12.1596L10.6996 93.1882Z" fill="#E7CCA8"/>
<path d="M242.213 195.9L240.637 198.634H243.789L242.213 195.9Z" fill="#E7CCA8"/>
<path d="M242.213 200.909L240.637 203.65H243.789L242.213 200.909Z" fill="#E7CCA8"/>
<path d="M245.489 197.951L244.029 200.909H246.949L245.489 197.951Z" fill="#E7CCA8"/>
<path d="M179.947 55.5074C179.947 57.434 178.393 58.9898 176.468 58.9898C174.543 58.9898 172.989 57.434 172.989 55.5074C172.989 53.5808 174.543 52.025 176.468 52.025C178.386 52.025 179.947 53.5881 179.947 55.5074Z" stroke="white" stroke-miterlimit="10"/>
<path d="M330.287 203.636H258.179C257.111 203.636 256.247 202.771 256.247 201.702C256.247 200.633 257.111 199.768 258.179 199.768H330.287C331.355 199.768 332.219 200.633 332.219 201.702C332.219 202.771 331.355 203.636 330.287 203.636Z" fill="#FEE6C6"/>
<path d="M268.138 237.827C267.055 237.827 266.162 237.165 266.118 236.322L264.244 202.443H272.031L270.157 236.322C270.106 237.165 269.22 237.827 268.138 237.827Z" fill="#FEE6C6"/>
<path d="M321.026 237.827C319.944 237.827 319.05 237.165 319.007 236.322L317.132 202.443H324.919L323.045 236.322C322.994 237.165 322.108 237.827 321.026 237.827Z" fill="#FEE6C6"/>
<path d="M294.237 237.827C293.154 237.827 292.261 237.165 292.217 236.322L290.343 202.443H298.13L296.256 236.322C296.213 237.165 295.319 237.827 294.237 237.827Z" fill="#FEE6C6"/>
<path d="M310.413 192.997C311.451 188.366 308.541 183.77 303.914 182.732C299.287 181.693 294.695 184.606 293.657 189.237C292.62 193.868 295.53 198.464 300.157 199.502C304.784 200.541 309.376 197.628 310.413 192.997Z" fill="#F9D8AC"/>
<path d="M306.36 184.057H297.505C297.012 184.057 296.612 183.657 296.612 183.163C296.612 182.669 297.012 182.269 297.505 182.269H306.36C306.854 182.269 307.254 182.669 307.254 183.163C307.254 183.657 306.854 184.057 306.36 184.057Z" fill="#F9D8AC"/>
<path d="M298.116 167.99C298.428 168.136 298.799 168.688 298.922 169.451C299.045 170.215 298.886 170.869 298.624 171.095C298.319 170.956 297.941 170.397 297.818 169.633C297.694 168.87 297.876 168.223 298.116 167.99Z" fill="#F9D8AC"/>
<path d="M298.697 171.019L298.518 171.049L299.323 175.948L299.502 175.919L298.697 171.019Z" fill="#F9D8AC"/>
<path d="M300.694 170.884C300.36 170.862 299.808 171.174 299.401 171.792C298.995 172.418 298.886 173.079 299.024 173.414C299.351 173.443 299.91 173.123 300.317 172.505C300.731 171.887 300.818 171.218 300.694 170.884Z" fill="#F9D8AC"/>
<path d="M296.598 171.56C296.91 171.429 297.527 171.545 298.116 172.003C298.704 172.461 299.016 173.057 298.995 173.421C298.697 173.559 298.065 173.435 297.476 172.977C296.888 172.519 296.59 171.916 296.598 171.56Z" fill="#F9D8AC"/>
<path d="M296.99 173.959C297.302 173.828 297.92 173.952 298.508 174.402C299.096 174.86 299.409 175.457 299.387 175.82C299.089 175.958 298.457 175.835 297.869 175.377C297.28 174.919 296.982 174.315 296.99 173.959Z" fill="#F9D8AC"/>
<path d="M301.094 173.29C300.76 173.268 300.208 173.581 299.801 174.199C299.394 174.817 299.285 175.485 299.423 175.82C299.75 175.849 300.309 175.529 300.716 174.911C301.123 174.286 301.217 173.617 301.094 173.29Z" fill="#F9D8AC"/>
<path d="M299.481 175.811L299.302 175.84L300.107 180.74L300.286 180.71L299.481 175.811Z" fill="#F9D8AC"/>
<path d="M301.486 175.675C301.152 175.653 300.6 175.966 300.193 176.584C299.786 177.209 299.677 177.87 299.815 178.205C300.142 178.234 300.702 177.921 301.108 177.296C301.515 176.678 301.61 176.009 301.486 175.675Z" fill="#F9D8AC"/>
<path d="M297.382 176.351C297.694 176.22 298.312 176.336 298.9 176.794C299.489 177.252 299.801 177.849 299.779 178.212C299.481 178.35 298.849 178.227 298.261 177.769C297.673 177.311 297.375 176.707 297.382 176.351Z" fill="#F9D8AC"/>
<path d="M297.782 178.757C298.094 178.626 298.711 178.75 299.3 179.201C299.888 179.659 300.201 180.255 300.179 180.618C299.881 180.757 299.249 180.633 298.661 180.175C298.072 179.717 297.767 179.106 297.782 178.757Z" fill="#F9D8AC"/>
<path d="M301.878 178.081C301.544 178.059 300.992 178.372 300.586 178.99C300.179 179.608 300.07 180.277 300.208 180.611C300.535 180.64 301.094 180.32 301.501 179.702C301.915 179.084 302.002 178.408 301.878 178.081Z" fill="#F9D8AC"/>
<path d="M300.272 180.601L300.093 180.63L300.898 185.53L301.078 185.5L300.272 180.601Z" fill="#F9D8AC"/>
<path d="M305.801 171.531C306.048 171.749 306.222 172.316 306.099 172.978C305.975 173.639 305.619 174.119 305.3 174.221C305.053 174.01 304.878 173.436 304.994 172.774C305.125 172.12 305.496 171.647 305.801 171.531Z" fill="#F9D8AC"/>
<path d="M305.224 174.176L304.443 178.423L304.622 178.456L305.403 174.209L305.224 174.176Z" fill="#F9D8AC"/>
<path d="M307.326 174.715C307.014 174.592 306.404 174.672 305.815 175.042C305.234 175.42 304.922 175.929 304.951 176.242C305.249 176.373 305.873 176.286 306.462 175.915C307.043 175.537 307.334 175.021 307.326 174.715Z" fill="#F9D8AC"/>
<path d="M303.237 173.959C303.571 173.952 304.116 174.243 304.53 174.803C304.944 175.362 305.053 175.951 304.915 176.235C304.588 176.249 304.036 175.951 303.622 175.391C303.208 174.832 303.12 174.243 303.237 173.959Z" fill="#F9D8AC"/>
<path d="M302.859 176.046C303.193 176.038 303.738 176.329 304.152 176.889C304.566 177.449 304.675 178.038 304.537 178.321C304.21 178.336 303.658 178.038 303.244 177.478C302.83 176.918 302.735 176.329 302.859 176.046Z" fill="#F9D8AC"/>
<path d="M306.941 176.794C306.629 176.671 306.019 176.751 305.43 177.122C304.849 177.5 304.537 178.008 304.566 178.321C304.864 178.452 305.488 178.365 306.077 177.994C306.658 177.623 306.956 177.1 306.941 176.794Z" fill="#F9D8AC"/>
<path d="M304.465 178.332L303.684 182.579L303.863 182.612L304.643 178.364L304.465 178.332Z" fill="#F9D8AC"/>
<path d="M306.564 178.866C306.251 178.743 305.641 178.823 305.053 179.193C304.472 179.571 304.159 180.08 304.188 180.393C304.486 180.524 305.111 180.437 305.699 180.066C306.28 179.695 306.571 179.179 306.564 178.866Z" fill="#F9D8AC"/>
<path d="M302.474 178.118C302.808 178.11 303.353 178.401 303.767 178.961C304.181 179.521 304.29 180.11 304.152 180.393C303.825 180.408 303.273 180.11 302.859 179.55C302.445 178.99 302.358 178.401 302.474 178.118Z" fill="#F9D8AC"/>
<path d="M303.696 182.484L302.916 186.731L303.094 186.764L303.875 182.517L303.696 182.484Z" fill="#F9D8AC"/>
<path d="M311.888 130.338C312.266 130.578 312.665 131.342 312.709 132.352C312.76 133.355 312.447 134.177 312.084 134.431C311.706 134.213 311.307 133.428 311.256 132.418C311.212 131.414 311.547 130.607 311.888 130.338Z" fill="#FEE6C6"/>
<path d="M312.199 134.336L311.96 134.348L312.272 140.803L312.511 140.791L312.199 134.336Z" fill="#FEE6C6"/>
<path d="M314.794 134.468C314.365 134.388 313.609 134.708 312.985 135.449C312.36 136.191 312.128 137.042 312.258 137.492C312.68 137.587 313.442 137.252 314.067 136.511C314.685 135.769 314.902 134.919 314.794 134.468Z" fill="#FEE6C6"/>
<path d="M309.396 134.73C309.818 134.613 310.602 134.853 311.292 135.529C311.982 136.206 312.302 137.027 312.215 137.492C311.808 137.623 311.009 137.369 310.319 136.693C309.622 136.017 309.324 135.188 309.396 134.73Z" fill="#FEE6C6"/>
<path d="M309.549 137.892C309.97 137.776 310.755 138.016 311.445 138.692C312.135 139.368 312.454 140.189 312.367 140.655C311.96 140.786 311.161 140.531 310.471 139.855C309.774 139.179 309.484 138.35 309.549 137.892Z" fill="#FEE6C6"/>
<path d="M314.946 137.63C314.517 137.55 313.762 137.87 313.137 138.612C312.513 139.353 312.28 140.204 312.411 140.655C312.832 140.749 313.595 140.415 314.22 139.673C314.837 138.932 315.055 138.081 314.946 137.63Z" fill="#FEE6C6"/>
<path d="M312.492 140.682L312.253 140.693L312.564 147.149L312.803 147.137L312.492 140.682Z" fill="#FEE6C6"/>
<path d="M315.099 140.785C314.67 140.705 313.915 141.025 313.29 141.767C312.665 142.508 312.433 143.359 312.563 143.81C312.985 143.904 313.747 143.57 314.372 142.828C314.99 142.087 315.207 141.229 315.099 140.785Z" fill="#FEE6C6"/>
<path d="M309.701 141.047C310.123 140.931 310.907 141.171 311.597 141.847C312.287 142.523 312.607 143.344 312.52 143.81C312.113 143.941 311.314 143.686 310.624 143.01C309.927 142.327 309.629 141.498 309.701 141.047Z" fill="#FEE6C6"/>
<path d="M309.854 144.21C310.275 144.093 311.06 144.333 311.75 145.009C312.44 145.685 312.76 146.507 312.672 146.972C312.266 147.103 311.467 146.849 310.777 146.173C310.079 145.496 309.781 144.668 309.854 144.21Z" fill="#FEE6C6"/>
<path d="M315.251 143.948C314.823 143.868 314.067 144.188 313.442 144.929C312.818 145.671 312.585 146.522 312.716 146.972C313.137 147.067 313.9 146.732 314.525 145.991C315.142 145.249 315.36 144.399 315.251 143.948Z" fill="#FEE6C6"/>
<path d="M312.81 146.971L312.571 146.983L312.883 153.438L313.122 153.426L312.81 146.971Z" fill="#FEE6C6"/>
<path d="M317.307 199.681H310.551C307.856 199.681 305.728 197.376 305.946 194.686L309.454 151.538H318.396L321.905 194.686C322.13 197.376 320.002 199.681 317.307 199.681Z" fill="#FEE6C6"/>
<path d="M319.319 151.669H308.539C307.907 151.669 307.399 151.16 307.399 150.527C307.399 149.895 307.907 149.386 308.539 149.386H319.319C319.951 149.386 320.459 149.895 320.459 150.527C320.459 151.153 319.951 151.669 319.319 151.669Z" fill="#FEE6C6"/>
<path d="M315.28 160.226C315.382 156.605 315.563 152.985 315.752 149.372C315.941 145.758 316.195 142.145 316.42 138.532C316.696 134.919 316.943 131.305 317.256 127.7L317.735 122.291C317.924 120.488 318.084 118.685 318.287 116.882C318.244 118.692 318.157 120.502 318.091 122.312L317.815 127.736C317.626 131.349 317.372 134.962 317.147 138.576C316.864 142.189 316.624 145.802 316.312 149.408C315.999 153.014 315.68 156.62 315.28 160.226Z" fill="#FEE6C6"/>
<path d="M315.621 156.082C315.077 148.848 314.866 141.607 314.735 134.366C314.634 127.125 314.619 119.884 314.939 112.636C315.483 119.869 315.694 127.11 315.825 134.351C315.919 141.593 315.934 148.834 315.621 156.082Z" fill="#FEE6C6"/>
<path d="M314.699 162.872C315.149 159.273 315.672 155.689 316.217 152.112C316.755 148.528 317.358 144.959 317.924 141.382C318.549 137.812 319.144 134.242 319.798 130.68L320.793 125.337C321.149 123.563 321.483 121.782 321.861 120.008C321.643 121.803 321.382 123.599 321.142 125.395L320.35 130.767C319.813 134.352 319.21 137.921 318.643 141.498C318.019 145.068 317.423 148.637 316.769 152.2C316.108 155.769 315.447 159.324 314.699 162.872Z" fill="#FEE6C6"/>
<path d="M313.362 112.745C313.362 113.166 313.021 113.508 312.6 113.508C312.178 113.508 311.837 113.166 311.837 112.745C311.837 112.323 312.178 111.981 312.6 111.981C313.021 111.981 313.362 112.323 313.362 112.745Z" stroke="#FEE6C6" stroke-miterlimit="10"/>
<path d="M317.452 110.876C318.463 110.876 319.283 110.056 319.283 109.044C319.283 108.033 318.463 107.212 317.452 107.212C316.441 107.212 315.622 108.033 315.622 109.044C315.622 110.056 316.441 110.876 317.452 110.876Z" stroke="#FEE6C6" stroke-miterlimit="10"/>
<path d="M321.135 118.481C321.468 118.481 321.738 118.211 321.738 117.877C321.738 117.544 321.468 117.274 321.135 117.274C320.802 117.274 320.532 117.544 320.532 117.877C320.532 118.211 320.802 118.481 321.135 118.481Z" stroke="#FEE6C6" stroke-miterlimit="10"/>
<path d="M323.198 130.906C323.198 131.218 322.944 131.473 322.631 131.473C322.319 131.473 322.065 131.218 322.065 130.906C322.065 130.593 322.319 130.339 322.631 130.339C322.944 130.339 323.198 130.593 323.198 130.906Z" stroke="#FEE6C6" stroke-miterlimit="10"/>
<path d="M308.699 126.115C309.245 126.115 309.687 125.672 309.687 125.126C309.687 124.58 309.245 124.137 308.699 124.137C308.153 124.137 307.711 124.58 307.711 125.126C307.711 125.672 308.153 126.115 308.699 126.115Z" stroke="#FEE6C6" stroke-miterlimit="10"/>
<path d="M284.968 171.095H259.792V198.547H284.968V171.095Z" fill="#F9D8AC"/>
<path d="M282.15 174.17H262.617V195.471H282.15V174.17Z" fill="#FEE6C6"/>
<path d="M31.3508 45.8306H27.2976V225.213H31.3508V45.8306Z" fill="#FEE6C6"/>
<path d="M50.0043 231.764H8.65125C8.65125 227.336 17.9127 223.752 29.3314 223.752C40.7502 223.752 50.0043 227.336 50.0043 231.764Z" fill="#FEE6C6"/>
<path d="M57.7694 48.2953H0.878906L1.93216 44.6021L2.14282 43.8751L4.05321 37.1866L4.26386 36.4596L14.6802 0H45.4208L54.7403 36.4596L54.9292 37.1866L56.6362 43.8751L56.8251 44.6021L57.7694 48.2953Z" fill="#FEE6C6"/>
<path d="M4.61254 38.8223L2.6731 42.1811H6.54473L4.61254 38.8223Z" fill="#E5CAA6"/>
<path d="M8.99987 42.1811L7.06042 38.8223H10.9393L8.99987 42.1811Z" fill="#E5CAA6"/>
<path d="M12.8715 38.8223L10.9393 42.1811H14.811L12.8715 38.8223Z" fill="#E5CAA6"/>
<path d="M17.2661 42.1811L15.3267 38.8223H19.1983L17.2661 42.1811Z" fill="#E5CAA6"/>
<path d="M21.1377 38.8223L19.1982 42.1811H23.0699L21.1377 38.8223Z" fill="#E5CAA6"/>
<path d="M25.5251 42.1811L23.5857 38.8223H27.4646L25.5251 42.1811Z" fill="#E5CAA6"/>
<path d="M29.3968 38.8223L27.4646 42.1811H31.3362L29.3968 38.8223Z" fill="#E5CAA6"/>
<path d="M33.7841 42.1811L31.8519 38.8223H35.7236L33.7841 42.1811Z" fill="#E5CAA6"/>
<path d="M37.663 38.8223L35.7235 42.1811H39.5951L37.663 38.8223Z" fill="#E5CAA6"/>
<path d="M42.0504 42.1811L40.111 38.8223H43.9826L42.0504 42.1811Z" fill="#E5CAA6"/>
<path d="M45.922 38.8223L43.9825 42.1811H47.8614L45.922 38.8223Z" fill="#E5CAA6"/>
<path d="M50.3094 42.1811L48.3772 38.8223H52.2488L50.3094 42.1811Z" fill="#E5CAA6"/>
<path d="M54.181 38.8223L52.2488 42.1811H56.1204L54.181 38.8223Z" fill="#E5CAA6"/>
<path d="M54.9292 37.1865H4.05322L4.26387 36.4595H54.7404L54.9292 37.1865Z" fill="#E5CAA6"/>
<path d="M56.825 44.6021H1.93213L2.14278 43.8751H56.6362L56.825 44.6021Z" fill="#E5CAA6"/>
<path d="M64.1901 154.707C65.6719 148.964 68.8608 143.831 72.1368 138.887C75.0423 134.496 78.0859 130.127 81.9212 126.521C85.7565 122.908 90.4852 120.065 95.6861 119.265C94.415 123.366 93.1438 127.466 91.8726 131.566C90.6015 135.667 89.2867 139.854 86.7807 143.337C84.1584 146.972 80.3594 149.632 76.3062 151.537C72.2457 153.442 67.9019 154.642 63.58 155.834" fill="#66A986"/>
<path d="M64.4594 154.781C66.6459 147.009 71.3964 139.942 76.1906 133.523C78.6675 130.2 81.3915 127.074 84.6893 124.552C86.251 123.352 94.2194 118.067 95.0112 120.56C95.3599 121.665 93.4277 125.657 93.1008 126.711C92.4906 128.681 91.895 130.651 91.2703 132.614C90.1008 136.3 88.8297 140.03 86.5561 143.199C81.2099 150.622 71.8831 153.261 63.5151 155.573C63.181 155.668 63.319 156.191 63.6604 156.097C71.8395 153.836 80.7159 151.291 86.3018 144.413C91.8151 137.63 93.4349 127.467 95.9555 119.339C96.0209 119.128 95.8102 118.968 95.6214 119.004C87.7546 120.444 81.6602 125.613 76.8443 131.771C71.5344 138.561 66.2899 146.267 63.9364 154.643C63.8348 154.97 64.3578 155.115 64.4594 154.781Z" fill="#66A986"/>
<path d="M55.474 174.01C61.2124 161.738 66.9436 149.459 72.682 137.187C72.9799 136.554 72.0356 136.002 71.7377 136.634C65.9993 148.906 60.2681 161.186 54.5297 173.457C54.2391 174.09 55.1762 174.643 55.474 174.01Z" fill="#80B996"/>
<path d="M56.3021 147.598C56.6362 134.737 61.4885 121.738 64.7209 109.371C64.8081 109.03 64.2851 108.884 64.1979 109.226C60.951 121.658 56.0987 134.664 55.7646 147.598C55.75 147.947 56.2948 147.947 56.3021 147.598Z" fill="#80B996"/>
<path d="M47.6435 150.288C42.1666 145.417 36.646 140.495 32.3531 134.548C28.0674 128.601 25.0529 121.469 25.2926 114.141C28.7866 119.688 36.1666 121.76 39.8058 127.212C41.0043 129.008 41.7235 131.08 42.4281 133.123C44.4038 138.845 46.3869 144.573 48.3626 150.295" fill="#66A986"/>
<path d="M47.8324 150.099C42.0867 144.988 36.2466 139.812 31.881 133.414C29.7091 130.23 27.9295 126.747 26.8108 123.054C26.2297 121.135 25.8375 119.172 25.6486 117.18C25.4888 115.464 24.9803 114.846 26.2515 115.9C28.053 117.398 29.6002 119.012 31.5323 120.379C34.1836 122.247 36.9875 123.999 38.985 126.609C41.5637 129.975 42.6097 134.512 43.9826 138.481C45.3554 142.443 46.721 146.406 48.0939 150.368C48.2101 150.695 48.7331 150.557 48.6169 150.222C47.0915 145.817 45.5734 141.418 44.0479 137.013C42.8494 133.537 41.9124 129.706 39.7405 126.674C35.9633 121.396 29.2079 119.39 25.5179 113.995C25.3726 113.777 25.0094 113.85 25.0094 114.134C24.8932 129.735 36.6388 140.858 47.4402 150.477C47.7089 150.717 48.1012 150.331 47.8324 150.099Z" fill="#66A986"/>
<path d="M36.9948 123.555C45.9511 141.811 51.8348 161.375 54.428 181.549C54.5152 182.233 55.6047 182.247 55.5176 181.549C52.9026 161.178 46.9825 141.447 37.9318 123.003C37.6267 122.37 36.6824 122.923 36.9948 123.555Z" fill="#80B996"/>
<path d="M53.1563 107.197C48.6745 91.4715 48.8052 74.4595 53.534 58.7997C56.8245 63.5325 59.3451 68.8034 60.9722 74.3286C62.7881 80.4864 63.4927 87.0368 62.425 93.369C61.3572 99.7013 58.4371 105.801 53.7519 110.185" fill="#66A986"/>
<path d="M53.4183 107.125C51.1229 98.8226 49.9898 90.2657 50.1859 81.6506C50.2949 77.0341 50.7597 72.4321 51.6023 67.8883C51.9655 65.9327 52.4014 63.9916 52.8953 62.065C53.7452 58.7862 54.3408 60.4074 55.6047 62.5884C64.009 77.0414 66.4715 97.3468 53.5491 109.997C53.2948 110.244 53.6798 110.629 53.934 110.382C68.2584 96.3581 63.9727 73.7408 53.7597 58.6626C53.629 58.4735 53.3311 58.4953 53.2585 58.728C48.6024 74.5986 48.4789 91.3272 52.8808 107.271C52.9897 107.605 53.5127 107.46 53.4183 107.125Z" fill="#66A986"/>
<path d="M65.8322 150.288C64.6409 142.378 67.1833 134.264 71.3019 127.409C75.4205 120.553 81.05 114.751 86.6286 109.022C87.987 119.942 85.6698 131.291 80.142 140.8C78.6239 143.417 76.8224 145.94 74.4108 147.765C71.9992 149.59 68.8903 150.666 65.9194 150.128" fill="#80B996"/>
<path d="M66.1083 150.288C65.0695 142.022 67.5538 134.024 71.8685 127.009C74.0622 123.446 76.6772 120.168 79.4447 117.034C80.7014 115.617 81.9943 114.221 83.3018 112.847C83.8611 112.258 84.4132 111.516 85.0524 111.022C86.033 110.266 85.9095 109.735 86.5342 110.84C87.1299 111.88 86.7303 114.541 86.7158 115.726C86.694 117.558 86.5778 119.39 86.3672 121.215C85.8877 125.228 84.9362 129.212 83.5125 132.999C80.7013 140.495 75.4205 150.942 65.9049 149.859C65.5562 149.822 65.5635 150.368 65.9049 150.404C74.6215 151.4 79.7934 142.959 82.8515 136.038C86.6141 127.539 87.9144 118.234 86.8829 109.023C86.8611 108.804 86.5996 108.644 86.418 108.826C75.4786 120.08 63.4134 133.319 65.549 150.288C65.6071 150.629 66.1519 150.637 66.1083 150.288Z" fill="#80B996"/>
<path d="M57.362 136.147C56.6865 126.477 58.6332 116.764 61.8148 107.604C64.9964 98.4437 69.3982 89.7705 73.7856 81.1191C76.6984 91.0137 77.6282 101.65 75.173 111.668C72.7178 121.686 66.6525 131.007 57.7833 136.256" fill="#80B996"/>
<path d="M57.6387 136.147C57.0648 126.18 58.997 116.387 62.3166 107.023C64.0817 102.043 66.2028 97.1941 68.4764 92.4249C69.5659 90.1275 70.6991 87.852 71.8395 85.5837C71.9703 85.322 73.1252 82.4794 73.4012 82.4939C74.3165 82.5303 74.3746 84.3042 74.5635 85.0966C78.9581 103.701 74.9339 125.38 57.646 136.024C57.3481 136.205 57.6242 136.678 57.922 136.496C76.8952 124.82 79.699 100.895 74.055 81.0472C73.9969 80.829 73.6627 80.7636 73.5538 80.9817C64.8154 98.2191 55.9462 116.285 57.0939 136.147C57.1157 136.496 57.6605 136.504 57.6387 136.147Z" fill="#80B996"/>
<path d="M51.4862 101.331C55.8372 126.682 56.5999 152.483 53.7888 178.052C53.7089 178.75 54.8057 178.743 54.8784 178.052C57.6968 152.389 56.8977 126.485 52.5394 101.04C52.4159 100.349 51.3699 100.64 51.4862 101.331Z" fill="#80B996"/>
<path d="M53.3014 109.596C49.1247 106.106 45.4855 100.181 44.5049 94.8305C43.5243 89.4797 43.8149 83.9762 44.149 78.5454C44.4904 73.1147 44.8754 67.633 44.0909 62.2458C48.1659 67.7348 51.5944 73.7035 54.2893 79.9922C56.3305 84.7541 57.9648 89.7777 58.1464 94.9541C58.328 100.13 56.9334 105.51 53.5121 109.4" fill="#80B996"/>
<path d="M53.4982 109.408C46.7429 103.446 44.1497 95.5583 44.1133 86.7251C44.0988 82.632 44.4693 78.5535 44.6727 74.475C44.7743 72.4321 44.847 70.3892 44.8179 68.3463C44.8107 67.7574 44.2514 63.6425 44.6145 63.4244C45.922 62.6392 55.1689 82.8138 55.6846 84.2969C58.5757 92.5775 59.2004 102.05 53.3239 109.212C53.106 109.481 53.4837 109.866 53.7089 109.597C65.3528 95.4056 53.2876 74.3805 44.324 62.1158C44.186 61.9268 43.7792 61.9558 43.8155 62.2539C45.0286 71.7705 42.9657 81.2725 43.7138 90.7964C44.2949 98.2191 47.4983 104.849 53.106 109.793C53.3747 110.026 53.7597 109.64 53.4982 109.408Z" fill="#80B996"/>
<path d="M47.1635 146.928C49.27 139.52 48.0279 129.422 44.4977 122.573C40.9674 115.732 35.4687 110.069 29.3671 105.372C29.7012 113.267 30.3114 121.272 32.9409 128.724C35.5777 136.183 40.1103 143.373 47.1635 146.928Z" fill="#80B996"/>
<path d="M47.4257 147.002C51.8276 130.128 42.4136 115.246 29.5639 105.184C29.3968 105.053 29.0845 105.118 29.099 105.38C29.7673 120.466 32.2079 139.23 47.0262 147.169C47.3385 147.336 47.6073 146.863 47.3022 146.696C40.5686 143.09 36.2466 136.685 33.5808 129.67C32.2079 126.056 31.329 122.269 30.7479 118.452C30.3556 115.864 30.1087 113.261 29.9271 110.651C29.869 109.8 29.7019 108.863 29.7673 108.012C29.8617 106.776 29.3896 106.42 30.6099 106.703C31.8375 106.987 33.8423 109.466 34.7357 110.317C36.0578 111.574 37.3217 112.897 38.513 114.279C41.1715 117.361 43.5177 120.793 45.1085 124.551C48.0431 131.458 48.8058 139.579 46.9027 146.856C46.8155 147.198 47.3385 147.343 47.4257 147.002Z" fill="#80B996"/>
<path d="M77.9484 204.835C77.9484 217.136 73.1761 227.853 66.1229 233.429H43.881C36.8278 227.853 32.0554 217.136 32.0554 204.835C32.0554 193.341 36.2249 183.229 42.5226 177.398H67.4739C73.779 183.229 77.9484 193.334 77.9484 204.835Z" fill="#FEE6C6"/>
<path d="M44.6581 189.27L38.6873 199.63H50.6363L44.6581 189.27Z" stroke="#E6CAA6" stroke-miterlimit="10"/>
<path d="M44.6582 191.8L40.8665 198.372H48.4499L44.6582 191.8Z" stroke="#E6CAA6" stroke-width="0.5" stroke-miterlimit="10"/>
<path d="M53.2876 223.287L46.0674 227.46V219.121L53.2876 223.287Z" stroke="#E6CAA6" stroke-width="0.75" stroke-miterlimit="10"/>
<path d="M50.8905 223.287L47.2659 225.381V221.193L50.8905 223.287Z" stroke="#E6CAA6" stroke-width="0.5" stroke-miterlimit="10"/>
<path d="M63.4135 180.444L57.6315 190.47H69.2028L63.4135 180.444Z" stroke="#E6CAA6" stroke-miterlimit="10"/>
<path d="M63.4135 184.247L60.922 188.565H65.9123L63.4135 184.247Z" stroke="#E6CAA6" stroke-width="0.5" stroke-miterlimit="10"/>
<path d="M63.4134 224.472L56.7743 209.197H70.0599L63.4134 224.472Z" stroke="#E6CAA6" stroke-miterlimit="10"/>
<path d="M63.4135 220.75L59.2004 211.059H67.6338L63.4135 220.75Z" stroke="#E6CAA6" stroke-width="0.5" stroke-miterlimit="10"/>
<path d="M41.3967 211.56C41.3967 210.543 42.2248 209.714 43.2417 209.714C44.2587 209.714 45.0868 210.543 45.0868 211.56C45.0868 212.578 44.2587 213.407 43.2417 213.407C42.2248 213.407 41.3967 212.578 41.3967 211.56Z" stroke="#E6CAA6" stroke-miterlimit="10"/>
<path d="M63.4135 202.254C65.0503 202.254 66.3771 200.926 66.3771 199.288C66.3771 197.65 65.0503 196.322 63.4135 196.322C61.7767 196.322 60.4498 197.65 60.4498 199.288C60.4498 200.926 61.7767 202.254 63.4135 202.254Z" stroke="#E6CAA6" stroke-miterlimit="10"/>
<path d="M51.4717 184.894C52.1096 184.894 52.6267 184.376 52.6267 183.738C52.6267 183.099 52.1096 182.582 51.4717 182.582C50.8339 182.582 50.3168 183.099 50.3168 183.738C50.3168 184.376 50.8339 184.894 51.4717 184.894Z" stroke="#E6CAA6" stroke-miterlimit="10"/>
<g opacity="0.25">
<path opacity="0.25" d="M69.1446 179.114C65.164 198.794 56.0406 217.42 42.8785 232.571C43.2054 232.862 43.5395 233.16 43.8809 233.429H66.1229C73.1761 227.853 77.9484 217.136 77.9484 204.835C77.9484 194.388 74.5053 185.097 69.1446 179.114Z" fill="#FEE6C6"/>
</g>
<path d="M67.4376 177.398H42.5662C41.8107 177.398 41.2006 176.787 41.2006 176.031V175.748C41.2006 174.992 41.8107 174.381 42.5662 174.381H67.4376C68.193 174.381 68.8032 174.992 68.8032 175.748V176.031C68.8105 176.787 68.193 177.398 67.4376 177.398Z" fill="#F9D8AC"/>
<path d="M69.0211 144.85C69.7184 142.48 70.5974 140.16 71.578 137.885C72.5513 135.609 73.67 133.392 74.8685 131.225C76.0888 129.066 77.3963 126.965 78.8346 124.951C79.561 123.948 80.2946 122.952 81.0573 121.978C81.8418 121.018 82.619 120.066 83.4544 119.15C83.1057 119.659 82.7498 120.168 82.3866 120.662L81.3406 122.189C80.6433 123.207 79.9605 124.232 79.2995 125.264C77.9774 127.343 76.699 129.437 75.5005 131.582C74.2874 133.719 73.1688 135.907 72.0792 138.118C70.9969 140.335 70.0017 142.589 69.0211 144.85Z" fill="#66A986"/>
<path d="M51.5733 103.345C51.1738 101.113 50.8542 98.8735 50.5491 96.6343C50.2368 94.3951 49.9753 92.1486 49.7138 89.9094C49.4741 87.663 49.2344 85.4165 49.0455 83.1628L48.7695 79.7822C48.7041 78.6553 48.6169 77.5212 48.5734 76.3943C48.7768 77.5066 48.9366 78.6262 49.1254 79.7458L49.5976 83.1046C49.9099 85.3438 50.1714 87.5903 50.4329 89.8367C50.6726 92.0832 50.9123 94.3296 51.1012 96.5906C51.2973 98.8298 51.4716 101.084 51.5733 103.345Z" fill="#66A986"/>
<path d="M34.525 116.031C35.7599 117.957 36.8567 119.964 37.8882 122.007C38.9269 124.05 39.8422 126.143 40.6993 128.274C41.5346 130.404 42.3046 132.563 42.9584 134.759C43.278 135.856 43.5903 136.961 43.8736 138.066C44.1351 139.179 44.4039 140.291 44.6145 141.418L43.5322 138.168C43.1763 137.085 42.8058 136.009 42.4281 134.933C41.6581 132.788 40.8736 130.651 40.031 128.543C39.2029 126.427 38.3022 124.333 37.3942 122.247C36.4645 120.16 35.4984 118.103 34.525 116.031Z" fill="#66A986"/>
<path d="M60.6387 126.885C61.7791 124.115 62.9123 121.353 63.98 118.561C65.0478 115.769 66.1011 112.978 67.0454 110.149C68.0478 107.336 68.9413 104.486 69.8129 101.636C70.2487 100.211 70.67 98.779 71.0841 97.3395L72.3117 93.0211C72.0574 94.4969 71.7378 95.9582 71.4255 97.4267C71.0841 98.888 70.7209 100.342 70.3504 101.789C69.5805 104.69 68.6798 107.547 67.7282 110.389C66.7258 113.21 65.6725 116.024 64.4885 118.779C63.3118 121.52 62.0479 124.239 60.6387 126.885Z" fill="#66A986"/>
<path d="M196.741 97.652H141.732C128.41 97.652 117.609 108.463 117.609 121.796V180.822H220.872V121.796C220.872 108.463 210.071 97.652 196.741 97.652Z" fill="#5C6193"/>
<path d="M208.647 167.83H129.827V180.822H208.647V167.83Z" fill="#4E5567"/>
<path d="M208.647 180.822H123.718V213.843H208.647V180.822Z" fill="#8E97FD"/>
<path d="M215.373 218.736H123.108C120.406 218.736 118.219 216.548 118.219 213.843H220.262C220.262 216.548 218.068 218.736 215.373 218.736Z" fill="#3F414E"/>
<path d="M120.667 234.025H117.609L123.108 218.736H127.386L120.667 234.025Z" fill="#3F414E"/>
<path d="M217.814 234.025H220.872L215.373 218.736H211.095L217.814 234.025Z" fill="#3F414E"/>
<path d="M108.849 107.125C105.892 105.155 103.408 102.349 102.239 98.9897C101.069 95.631 101.331 91.7051 103.314 88.7534C105.297 85.8018 109.081 84.0424 112.546 84.8348C112.691 80.1529 116.992 76.7432 121.154 74.5985C125.737 72.2357 130.524 70.869 135.209 73.0136C137.817 74.2132 140.563 76.1616 141.943 78.6843C143.323 81.1998 144.144 83.977 144.943 86.7396C148.219 84.7912 152.679 85.0893 155.672 87.4521C158.664 89.8149 159.979 94.0897 158.846 97.732C162.55 96.1617 167.039 95.4637 170.446 97.6084C174.027 99.8622 175.262 104.493 175.509 108.724C175.72 112.359 175.357 116.213 173.294 119.208C170.853 122.756 166.531 124.428 162.441 125.773C155.366 128.092 148.081 130.033 140.635 130.251C133.19 130.469 125.519 128.855 119.418 124.588C113.309 120.32 109.001 113.166 109.219 105.715" fill="#4E5567"/>
<path d="M104.948 112.417C101.244 112.614 97.7278 114.962 96.1225 118.313C94.5172 121.665 94.8804 125.874 97.0378 128.891C93.9579 128.935 90.9725 130.767 89.5342 133.493C88.096 136.22 88.2776 139.717 89.9773 142.283C91.4156 144.45 93.7618 145.86 96.1952 146.776C102.943 149.313 110.614 148.455 117.311 145.787C121.161 144.253 124.858 142.079 127.452 138.852C130.045 135.624 131.396 131.211 130.277 127.219C129.493 124.435 127.597 122.072 125.36 120.255C123.115 118.437 120.522 117.107 117.943 115.82C113.498 113.602 108.842 111.407 103.873 111.32" fill="#3F4553"/>
<path d="M126.776 161.251H105.391C98.6431 161.251 93.1735 155.777 93.1735 149.023C93.1735 142.269 98.6431 136.794 105.391 136.794H122.338C124.793 136.794 126.783 138.786 126.783 141.244V161.251H126.776Z" fill="#8E97FD"/>
<path d="M129.827 213.843H115.597C110.636 213.843 106.612 209.815 106.612 204.85V136.787H120.841C125.803 136.787 129.827 140.815 129.827 145.78V213.843Z" fill="#8E97FD"/>
<path d="M132.34 75.878C134.272 75.42 136.451 75.7689 138.166 76.9467C139.008 77.5356 139.749 78.2989 140.221 79.2077C140.505 79.6366 140.65 80.131 140.832 80.5963C140.97 81.0761 141.064 81.5778 141.144 82.0576C140.904 81.6141 140.752 81.1488 140.505 80.7272C140.25 80.3128 140.047 79.8766 139.742 79.5058C139.212 78.7206 138.522 78.0663 137.752 77.5356C136.989 76.9976 136.117 76.6123 135.209 76.3433C134.294 76.0961 133.335 75.9216 132.34 75.878Z" fill="white"/>
<path d="M164.679 99.8184C166.713 99.782 168.819 100.538 170.359 101.999C170.751 102.356 171.064 102.792 171.376 103.214C171.623 103.686 171.914 104.13 172.052 104.638C172.255 105.126 172.32 105.649 172.4 106.158C172.451 106.674 172.429 107.19 172.415 107.692C172.19 106.696 171.964 105.722 171.529 104.849C171.129 103.962 170.562 103.17 169.858 102.516C169.168 101.847 168.354 101.301 167.483 100.858C166.589 100.436 165.659 100.066 164.679 99.8184Z" fill="white"/>
<path d="M152.439 89.146C152.889 89.2114 153.318 89.3714 153.732 89.5749C154.146 89.7785 154.524 90.0475 154.858 90.3601C155.192 90.68 155.468 91.0726 155.657 91.4942C155.853 91.9159 155.926 92.3885 155.911 92.8392C155.766 92.4103 155.642 91.9886 155.403 91.6251C155.17 91.2616 154.916 90.9199 154.596 90.6218C153.979 90.0257 153.238 89.5531 152.439 89.146Z" fill="white"/>
<path d="M163.495 120.691C164.41 117.362 164.112 113.596 162.18 110.731C160.248 107.867 156.543 106.136 153.202 107.009C154.226 104.602 152.744 101.731 150.58 100.255C148.422 98.7791 145.749 98.3211 143.192 97.7395C135.681 96.031 128.483 92.9412 122.069 88.6737C118.822 86.5145 118.284 87.0015 116.752 83.5192C115.837 84.8641 114.042 87.0524 113.992 88.7173C111.093 86.071 105.282 85.7947 103.306 88.7464C101.323 91.698 101.062 95.6239 102.231 98.9827C103.401 102.341 105.885 105.148 108.841 107.118L109.205 105.708C108.987 113.159 113.294 120.313 119.403 124.581C125.512 128.848 133.183 130.462 140.621 130.244C147.485 130.041 154.211 128.376 160.763 126.296C161.977 124.573 162.943 122.705 163.495 120.691Z" fill="#3F4553"/>
<path d="M123.224 145.78V205.41H111.602V155.115H108.413C105.05 155.115 102.326 152.389 102.326 149.023C102.326 145.657 105.05 142.93 108.413 142.93H120.376C121.953 142.93 123.224 144.203 123.224 145.78Z" stroke="#8C96FF" stroke-miterlimit="10"/>
<path d="M135.398 96.438C134.911 92.6284 137.323 89.1824 140.781 88.7389C144.245 88.2954 147.449 91.0145 147.943 94.824C148.429 98.6335 146.018 102.08 142.56 102.523C139.095 102.967 135.892 100.24 135.398 96.438Z" fill="#8E97FD"/>
<path d="M135.398 96.4398C135.885 100.249 139.095 102.976 142.56 102.525C143.999 102.343 145.248 101.631 146.192 100.606C141.892 97.8429 141.137 90.9872 140.999 88.7262C140.926 88.7335 140.861 88.7335 140.788 88.7407C137.323 89.1842 134.911 92.6302 135.398 96.4398Z" fill="#8E97FD"/>
<path d="M126.166 112.178L128.606 123.185L137.163 125.628C137.163 125.628 140.221 122.567 140.221 121.956C140.221 121.345 135.943 109.728 135.943 109.728L126.166 112.178Z" fill="#FDBCA0"/>
<path d="M135.936 109.735L126.159 112.178L126.994 115.936C128.744 116.693 130.72 117.252 132.972 117.529C134.2 117.681 135.464 117.449 136.539 116.823C137.091 116.504 137.606 116.111 138.1 115.697C137.025 112.694 135.936 109.735 135.936 109.735Z" fill="#DF8370"/>
<path d="M112.72 90.1638C112.72 90.1638 111.5 114.017 132.885 115.238C139.604 112.796 143.882 103.621 142.662 96.278C141.442 88.9425 133.495 76.7069 121.887 80.3783C115.779 82.8283 112.72 90.1638 112.72 90.1638Z" fill="#FDBCA0"/>
<path d="M180.543 117.689L196.08 98.6773C196.698 97.9212 197.039 96.9761 197.039 95.9946V90.8329C197.039 90.4403 197.293 90.084 197.664 89.9605C198.26 89.7642 198.87 90.2076 198.87 90.8329V94.4534L204.368 84.6678L211.698 84.0571L201.92 101.178L187.255 126.864L180.543 117.689Z" fill="#FDBCA0"/>
<path d="M248.976 100.56L274.639 109.124L282.535 102.465C285.491 99.9714 289.828 99.7315 292.9 102.08C294.68 103.439 295.617 105.351 293.576 107.903C288.687 114.017 274.632 120.742 274.632 120.742L245.91 114.628L248.976 100.56Z" fill="#FDBCA0"/>
<path opacity="0.5" d="M245.925 114.628L260.184 117.667C261.099 112.527 260.387 107.336 259.726 104.152L248.983 100.568L245.925 114.628Z" fill="#DF8370"/>
<path d="M170.156 144.595C170.156 144.595 202.327 108.819 216.717 96.6051C219.114 94.5695 222.223 93.5807 225.361 93.8352C235.981 94.693 258.143 98.728 258.143 98.728C258.143 98.728 262.421 114.628 254.474 123.803C249.586 123.192 227.591 118.91 227.591 118.91L182.984 167.83L170.156 144.595Z" fill="#739BE0"/>
<path d="M255.695 131.749L276.469 154.984L293.794 157.958C297.012 158.51 299.031 161.913 297.752 164.922C296.924 166.864 294.941 169.481 290.525 168.441C280.138 165.998 270.36 162.938 270.36 162.938L245.918 143.367L255.695 131.749Z" fill="#FDBCA0"/>
<path opacity="0.5" d="M268.494 146.064L255.695 131.749L245.918 143.367L263.002 157.049C265.821 154.134 268.21 150.419 268.494 146.064Z" fill="#DF8370"/>
<path opacity="0.2" d="M216.579 103.679L171.667 147.321L182.991 167.83L227.598 118.91C227.598 118.91 249.593 123.192 254.482 123.803C254.99 123.221 255.44 122.603 255.854 121.97C247.864 115.435 238.327 107.932 231.223 102.69C226.748 99.3968 220.559 99.8112 216.579 103.679Z" fill="#739BE0"/>
<path d="M152.439 164.159C152.439 164.159 163.437 180.059 179.323 178.227C194.155 176.511 210.579 155.079 222.143 136.816C223.327 134.94 225.978 134.73 227.453 136.38C236.547 146.58 252.644 161.716 252.644 161.716C252.644 161.716 267.92 154.381 267.92 142.756C263.707 137.696 246.128 119.55 235.617 108.768C231.085 104.115 223.748 103.715 218.729 107.838L169.538 148.259L152.439 164.159Z" fill="#97B8FF"/>
<g opacity="0.5">
<path opacity="0.5" d="M179.323 178.227C194.155 176.511 210.579 155.079 222.143 136.816C223.327 134.94 225.978 134.73 227.453 136.38C236.547 146.58 252.644 161.716 252.644 161.716C252.644 161.716 256.203 160 259.886 156.925C251.7 148.768 243.027 141.105 233.918 134.003C230.969 131.705 227.467 129.335 223.799 130.062C220.61 130.702 218.366 133.486 216.412 136.089C212.184 141.716 207.964 147.343 203.736 152.97C199.124 159.114 194.25 165.475 187.342 168.826C181.451 171.676 174.383 171.996 168.26 169.692C163.509 167.903 159.383 164.544 156.587 160.313L152.439 164.166C152.439 164.159 163.437 180.059 179.323 178.227Z" fill="#97B8FF"/>
</g>
<path d="M211.705 161.251H233.09C239.838 161.251 245.307 155.777 245.307 149.023C245.307 142.269 239.838 136.794 233.09 136.794H216.143C213.688 136.794 211.698 138.786 211.698 141.244V161.251H211.705Z" fill="#8E97FD"/>
<path d="M208.647 213.843H222.877C227.838 213.843 231.862 209.815 231.862 204.85V136.787H217.632C212.671 136.787 208.647 140.815 208.647 145.78V213.843Z" fill="#8E97FD"/>
<path d="M214.727 145.78V205.41H226.349V155.115H229.538C232.901 155.115 235.625 152.389 235.625 149.023C235.625 145.657 232.901 142.93 229.538 142.93H217.574C215.998 142.93 214.727 144.203 214.727 145.78Z" stroke="#8C96FF" stroke-miterlimit="10"/>
<path d="M118.219 101.171L107.832 104.232C107.832 104.232 110.89 114.628 126.166 121.353L127.996 120.742C127.996 120.742 136.546 125.533 138.689 117.325C142.146 116.118 146.497 115.115 149.904 114.424C153.427 113.712 157.081 114.272 160.226 115.995L172.444 122.705C173.599 123.337 175.044 123.068 175.894 122.058L184.211 112.178L192.695 118.568L180.935 137.303C180.173 138.525 178.596 138.954 177.318 138.292L165.885 132.36L172.604 142.756C172.604 142.756 171.993 161.716 152.439 164.159C145.72 157.434 137.163 148.87 132.275 145.199C127.386 141.527 111.5 131.131 107.222 126.849C102.943 122.567 91.9459 107.278 91.3357 99.3315C91.3357 95.0494 115.779 91.996 115.779 91.996L118.219 101.171Z" fill="#FFFFFE"/>
<path d="M114.311 125.031C101.541 116.271 96.1298 104.828 93.8417 96.9541C92.3018 97.6884 91.3357 98.4881 91.3357 99.3387C91.9459 107.292 102.943 122.574 107.222 126.856C111.5 131.138 127.386 141.534 132.275 145.206C133.146 145.86 134.142 146.674 135.209 147.605C132.602 142.065 126.863 133.646 114.311 125.031Z" fill="#F2F2F2"/>
<path d="M154.219 124.464C154.727 124.319 155.25 124.239 155.78 124.195C156.311 124.144 156.841 124.152 157.379 124.203C158.439 124.304 159.514 124.573 160.48 125.097C161.454 125.591 162.311 126.347 162.935 127.241C163.284 127.67 163.509 128.172 163.763 128.652C164.003 129.139 164.134 129.67 164.323 130.179L164.272 130.077C164.868 130.884 165.42 131.727 165.993 132.549C166.567 133.377 167.105 134.221 167.642 135.079C166.967 134.33 166.299 133.574 165.667 132.803C165.035 132.025 164.374 131.262 163.763 130.469L163.742 130.448L163.705 130.368C163.509 129.902 163.357 129.415 163.131 128.957C162.885 128.521 162.681 128.056 162.354 127.67C162.086 127.249 161.722 126.907 161.374 126.544C160.981 126.238 160.611 125.904 160.161 125.671C159.296 125.17 158.337 124.806 157.32 124.632C156.311 124.457 155.265 124.377 154.219 124.464Z" fill="#97B8FF"/>
<path d="M130.197 97.9938C130.735 98.8444 131.2 100.56 132.558 100.291C133.023 100.197 133.241 99.8404 133.597 99.5642C134.846 98.59 135.5 100.088 134.614 100.909C134.156 101.331 133.517 101.433 132.929 101.498C132.587 101.534 132.58 102.08 132.929 102.043C133.786 101.949 134.686 101.752 135.238 101.025C135.682 100.444 135.769 99.6441 135.282 99.0625C134.832 98.5391 134.163 98.4519 133.597 98.8299C133.067 99.1789 132.769 100.008 131.904 99.6369C131.287 99.3752 130.996 98.2338 130.669 97.7176C130.481 97.4268 130.008 97.6958 130.197 97.9938Z" fill="#444359"/>
<path d="M127.314 106.013C130.154 108.397 134.105 107.881 136.205 104.813C136.401 104.522 135.929 104.246 135.732 104.537C133.851 107.292 130.263 107.779 127.699 105.627C127.43 105.402 127.045 105.787 127.314 106.013Z" fill="#444359"/>
<path d="M120.725 96.3797C121.386 94.6785 123.057 93.7407 124.858 94.0606C125.2 94.1187 125.345 93.5953 125.004 93.5371C122.897 93.1664 120.972 94.2423 120.202 96.2416C120.071 96.5615 120.602 96.6996 120.725 96.3797Z" fill="#444359"/>
<path d="M122.461 101.214L121.016 100.378L122.679 100.524L122.461 101.214Z" fill="#444359"/>
<path d="M122.81 101.418C123.58 99.3387 125.701 98.379 127.793 99.0842C128.127 99.1933 128.272 98.6698 127.938 98.5608C125.556 97.7611 123.151 98.9315 122.287 101.28C122.163 101.6 122.686 101.745 122.81 101.418Z" fill="#444359"/>
<path d="M123.754 99.2149L123.108 97.3174L124.386 98.8587L123.754 99.2149Z" fill="#444359"/>
<path d="M126.74 98.6261L127.183 97.3174L127.466 98.6769L126.74 98.6261Z" fill="#444359"/>
<path d="M137.737 94.1625L138.754 92.832L138.398 94.4678L137.737 94.1625Z" fill="#444359"/>
<path d="M138.514 94.3515C136.212 93.45 133.749 94.4605 132.769 96.7288C132.631 97.0487 133.103 97.3249 133.241 97.0051C134.134 94.9403 136.27 94.0534 138.376 94.8749C138.696 95.0058 138.834 94.4751 138.514 94.3515Z" fill="#444359"/>
<path d="M135.362 94.3151L135.078 92.3303L136.052 94.0824L135.362 94.3151Z" fill="#444359"/>
<path d="M133.161 96.4743L132.34 95.3547L133.611 95.9072L133.161 96.4743Z" fill="#444359"/>
<path d="M197.925 100.567L205.153 77.8847C205.342 77.2958 205.879 76.8887 206.504 76.8741L219.47 76.5324C220.465 76.5034 221.191 77.463 220.901 78.4154L213.695 101.978C213.499 102.61 212.903 103.032 212.242 103.01L199.255 102.479C198.296 102.421 197.635 101.483 197.925 100.567Z" fill="#3F4553"/>
<path d="M196.705 100.568L203.933 77.8848C204.121 77.2959 204.659 76.8888 205.284 76.8743L218.25 76.5326C219.245 76.5035 219.971 77.4631 219.681 78.4155L212.475 101.978C212.279 102.61 211.683 103.032 211.022 103.01L198.034 102.48C197.068 102.421 196.414 101.484 196.705 100.568Z" fill="#4E5567"/>
<path d="M217.327 80.2257L212.497 96.0091L211.807 98.2774L211.48 99.3461C211.364 99.7241 211.073 100.008 210.724 100.124C210.586 100.168 210.448 100.189 210.303 100.182L207.594 100.073L199.763 99.7532C198.979 99.7169 198.448 98.9535 198.681 98.212L202.422 86.4635L203.838 82.0214L204.55 79.7968C204.579 79.7023 204.623 79.6078 204.681 79.5278C204.884 79.2006 205.24 78.9898 205.64 78.9753L206.017 78.968L216.165 78.699C216.971 78.6772 217.56 79.4551 217.327 80.2257Z" fill="#F2EDE4"/>
<g opacity="0.35">
<path opacity="0.35" d="M212.497 96.0091L211.807 98.2774L204.681 79.5278C204.884 79.2007 205.24 78.9898 205.64 78.9753L206.017 78.968L212.497 96.0091Z" fill="white"/>
</g>
<g opacity="0.35">
<path opacity="0.35" d="M210.724 100.124C210.586 100.168 210.448 100.189 210.303 100.182L207.594 100.073L202.422 86.4635L203.838 82.0214L210.724 100.124Z" fill="white"/>
</g>
<path d="M115.553 104.69C118.074 98.9608 118.742 92.4322 117.442 86.3035C118.35 89.2188 121.524 90.8691 124.553 91.2545C127.582 91.6398 130.655 91.1018 133.706 91.2545C136.757 91.4071 140.054 92.4831 141.594 95.1221C141.878 95.602 142.19 96.1981 142.742 96.2417C143.432 96.2999 143.839 95.4857 143.984 94.8095C145.11 89.7423 143.032 84.1806 139.074 80.8218C135.115 77.4631 129.507 76.2926 124.444 77.434C119.381 78.5754 114.921 81.9051 112.059 86.2308C110.265 88.9426 109.052 92.076 108.871 95.3257C108.689 98.5682 109.59 101.92 111.616 104.457C112.118 105.082 112.735 105.686 113.519 105.86C114.304 106.035 115.263 105.591 115.386 104.791" fill="#3F4553"/>
<path d="M115.484 111.997C119.242 111.23 121.62 107.33 120.796 103.286C119.972 99.2413 116.258 96.5846 112.501 97.3515C108.743 98.1185 106.365 102.019 107.188 106.063C108.012 110.107 111.727 112.764 115.484 111.997Z" fill="#8E97FD"/>
<path d="M111.246 101.672C107.12 89.0806 112.285 84.3333 112.517 84.0279L112.67 84.0134H112.706L112.858 84.0061C112.684 84.246 110.607 89.9531 113.999 100.306L111.246 101.672Z" fill="#8E97FD"/>
<path d="M119.955 108.71C109.277 111.545 107.519 105.824 107.541 101.694C107.033 103.025 106.888 104.537 107.2 106.071C108.028 110.12 111.74 112.774 115.495 112.01C117.435 111.603 119.004 110.367 119.955 108.71Z" fill="#8E97FD"/>
</svg>
