<svg width="415" height="258" viewBox="0 0 415 258" fill="none" xmlns="http://www.w3.org/2000/svg">
<path d="M67.5835 225L-8 258H422L348.498 225H67.5835Z" fill="#8C96FF"/>
<path d="M181.48 163.64L167.2 186.84L194.59 219.37H222.21L247.96 186.29L232.02 163.64H181.48Z" fill="#3F4553"/>
<path d="M167.2 186.84C167.2 186.84 105.77 191.59 90.3599 207.68C74.9499 223.77 82.1999 241.24 97.2099 241.24C124.84 241.24 183.3 242.93 210.96 241.24L212.61 203.57L167.2 186.84Z" fill="#3F4553"/>
<path d="M246.37 186.04C246.37 186.04 310.7 191.59 326.11 207.68C341.52 223.77 332.64 234.43 319.26 241.24C300.43 250.83 232.56 249.24 197.36 237.59L203.87 203.57L246.37 186.04Z" fill="#3F4553"/>
<path d="M249.2 217.64L244.85 206.4L250.27 203.99C250.27 203.99 249.52 197.34 256.15 196.06C262.78 194.78 270.68 199.06 278.38 195.61C285.48 192.43 294.17 189.5 302.28 193.9C303.48 194.55 304.04 195.98 303.63 197.28L303.6 197.38C303.19 198.69 301.91 199.5 300.54 199.36C297.68 199.07 292.58 199.13 287.54 202.18C278.85 207.46 249.2 217.64 249.2 217.64Z" fill="#FEBBA0"/>
<path d="M299.81 218.28C299.81 218.28 256.88 210.65 166.45 209.47L157.72 221.31C157.72 221.31 180.22 234.17 201.34 238.82C222.46 243.47 295.37 258.11 327.93 235.56L299.81 218.28Z" fill="#3F4553"/>
<path d="M201.34 238.83C179.69 233.83 157.04 221.01 157.04 221.01L158.39 218.72" stroke="#6E758F" stroke-width="1.5925" stroke-miterlimit="10" stroke-linecap="round"/>
<path d="M166.45 209.47C166.45 209.47 265.8 207.2 292.31 222.58" stroke="#6E758F" stroke-width="1.5925" stroke-miterlimit="10" stroke-linecap="round"/>
<path d="M117.68 215.91C117.68 215.91 135.82 207.41 148.22 212.98" stroke="#6E758F" stroke-width="1.5925" stroke-miterlimit="10" stroke-linecap="round"/>
<path d="M159.81 219.35L166.44 209.25L159.81 205.66C159.81 205.66 157.49 199.85 150.99 198.05C144.48 196.26 139.85 199.15 132.44 195.11C125.61 191.38 117.17 187.79 108.75 191.54C107.51 192.09 106.83 193.47 107.14 194.8L107.16 194.9C107.47 196.24 108.68 197.14 110.05 197.11C112.92 197.04 118.01 197.5 122.79 200.94C131.04 206.88 159.81 219.35 159.81 219.35Z" fill="#FEBBA0"/>
<path d="M216.89 209.83L244.05 207.16" stroke="#6E758F" stroke-width="1.5925" stroke-miterlimit="10" stroke-linecap="round"/>
<path d="M182.35 198.06L197.5 209.03" stroke="#6E758F" stroke-width="1.5925" stroke-miterlimit="10" stroke-linecap="round"/>
<path d="M178.44 48.7702C179.08 55.0302 184.53 59.5902 190.61 58.9702C196.69 58.3502 201.1 52.7702 200.46 46.5202C199.82 40.2602 194.37 35.7002 188.29 36.3202C182.22 36.9302 177.81 42.5102 178.44 48.7702Z" fill="#3F4553"/>
<path d="M201.15 53.3202C201.15 53.3202 181.83 50.4002 178.79 32.1702C176.11 16.0602 186.92 3.15021 198.77 0.920206C198.78 0.920206 227.25 44.8002 201.15 53.3202Z" fill="#3F4553"/>
<path d="M201.59 2.65021C200.17 3.35021 198.82 4.27021 197.59 5.46021C186.58 16.0502 193.55 36.6102 203.41 45.8902C208.87 51.0202 216.85 53.4102 223.82 50.7902C234.01 46.9602 237.2 35.4202 235.13 25.1402C233.59 17.4802 229.34 10.2502 223.07 5.75021C216.8 1.26021 208.33 -0.639794 201.59 2.65021Z" fill="#FDBCA0"/>
<path d="M199.76 39.6902C197.83 41.6002 194.47 42.3802 191.89 41.4702C189.31 40.5602 187.19 38.1302 186.52 35.3102C185.92 32.7802 186.57 29.9002 188.43 28.3502C190.29 26.8002 193.64 26.9002 195.23 28.9102L199.76 39.6902Z" fill="#FDBCA0"/>
<path d="M196.94 32.9702L198.97 69.3102C199.24 76.0302 204.69 81.3702 211.41 81.5002C219.17 81.6602 225.26 74.8802 224.27 67.1802L220.17 33.4402L196.94 32.9702Z" fill="#FDBCA0"/>
<path d="M222.93 56.2202L222.42 51.2402C222.42 51.2402 212.42 54.3102 203.41 45.8802C203.41 45.8902 208.6 55.3602 222.93 56.2202Z" fill="#DF8370"/>
<path d="M192.97 27.4802C205.99 26.8102 217.87 18.0702 224.43 6.81021C224.43 6.81021 212.45 -4.55979 194.94 2.09021C180.43 7.59021 192.97 27.4802 192.97 27.4802Z" fill="#3F4553"/>
<path d="M194.4 35.8402C192.9 35.9902 191.59 35.1802 191.47 34.0302C191.38 33.1602 191.99 32.3502 192.93 31.9302" stroke="#444359" stroke-width="1.1144" stroke-miterlimit="10" stroke-linecap="round"/>
<path d="M225.68 33.0002C225.98 32.0902 226.5 31.3702 227.08 30.6902L227.36 31.5702C226.7 31.3202 226.34 30.9402 225.97 30.5702C225.62 30.1802 225.31 29.7902 225.03 29.3702C224.47 28.5402 224 27.6602 223.66 26.7302C224.36 27.4402 225 28.1702 225.67 28.8702C226.01 29.2102 226.33 29.5602 226.68 29.8602C227.01 30.1502 227.4 30.4502 227.67 30.5202L228.48 30.7102L227.95 31.4002C227.41 32.1102 226.81 32.7702 225.98 33.2502C225.88 33.3102 225.76 33.2702 225.7 33.1802C225.67 33.1102 225.67 33.0502 225.68 33.0002Z" fill="#444359"/>
<path d="M228.61 36.1802C228.21 37.0002 227.53 37.7102 226.65 38.1402C225.78 38.5902 224.7 38.6802 223.74 38.4002C222.76 38.1302 222 37.4902 221.35 36.8302C221.06 36.4702 220.77 36.1002 220.53 35.7202C220.32 35.3102 220.1 34.9102 219.94 34.4902C220.31 34.7702 220.63 35.0702 220.95 35.3702L221.94 36.1902C222.64 36.6502 223.3 37.1502 224.06 37.3302C224.79 37.5602 225.57 37.5502 226.34 37.3402C227.1 37.1202 227.86 36.6902 228.61 36.1802Z" fill="#444359"/>
<path d="M218.14 23.1102C218.53 24.2702 218.75 25.4702 218.67 26.7602C218.62 27.3902 218.47 28.0802 218 28.6902C217.52 29.3102 216.71 29.5802 216 29.5602C215.27 29.5502 214.55 29.2302 214.06 28.7802C213.55 28.3302 213.15 27.8102 212.85 27.2602C212.25 26.1502 211.87 24.9902 211.68 23.7702C211.65 23.5802 211.78 23.4002 211.97 23.3602C212.15 23.3302 212.31 23.4402 212.36 23.6002L212.37 23.6202C212.71 24.7002 213.16 25.7902 213.74 26.7302C214.32 27.6402 215.11 28.4802 216.04 28.4502C216.5 28.4702 216.93 28.3502 217.19 28.0202C217.48 27.7002 217.62 27.1802 217.7 26.6502C217.85 25.5802 217.75 24.4002 217.57 23.2702V23.2502C217.54 23.0902 217.66 22.9302 217.82 22.9102C217.95 22.8902 218.09 22.9802 218.14 23.1102Z" fill="#444359"/>
<path d="M232.66 20.8402C232.99 21.8202 233.17 22.8202 233.15 23.8902C233.14 24.4202 233.04 25.0002 232.7 25.5502C232.37 26.1302 231.63 26.4902 230.99 26.4602C230.32 26.4502 229.71 26.1002 229.32 25.6902C228.92 25.2702 228.61 24.8202 228.38 24.3402C227.93 23.3802 227.65 22.4002 227.51 21.3702C227.48 21.1802 227.62 21.0002 227.82 20.9702C227.99 20.9502 228.15 21.0502 228.2 21.2102L228.21 21.2302C228.5 22.1302 228.85 23.0502 229.3 23.8502C229.75 24.6302 230.36 25.3802 231.03 25.3402C231.37 25.3502 231.64 25.2502 231.82 24.9702C232.02 24.6902 232.12 24.2602 232.18 23.8102C232.28 22.9102 232.2 21.9202 232.09 20.9802V20.9602C232.07 20.8002 232.19 20.6502 232.35 20.6202C232.48 20.6202 232.62 20.7102 232.66 20.8402Z" fill="#444359"/>
<path d="M243.46 72.6102C243.37 66.5102 223.59 61.6302 223.59 61.6302C222.35 63.0002 220.22 65.3102 211.25 65.3102C202.67 65.3102 199.24 63.0902 197.9 61.6302H189.41C187.52 61.6302 185.79 62.7102 185 64.4302C167.99 101.64 177.55 143.2 181.47 163.63C181.83 165.51 217.33 164.24 233.34 165.51C236.8 165.8 243.8 94.7802 243.46 72.6102Z" fill="#FEE6C6"/>
<path d="M202.15 125.23C203.91 111.01 206.06 102.48 207.71 105.28C209.17 107.76 208.36 120.2 206.17 132.2C206.18 132.2 201.4 131.32 202.15 125.23Z" fill="#FEBBA0"/>
<path d="M213.77 125.23C212.01 111.01 209.86 102.48 208.21 105.28C206.75 107.76 207.56 120.2 209.75 132.2C209.74 132.2 214.52 131.32 213.77 125.23Z" fill="#FEBBA0"/>
<path d="M272.39 121.7H250.04L253.59 144.4L213.03 124.61C212.89 123.09 212.7 121.21 212.47 119.22C210.94 119.22 209.4 119.22 207.87 119.2C207.88 120.93 207.91 122.1 207.91 122.1C207.91 122.1 207.12 132.54 208.93 136.02C212.37 142.64 247.56 163.96 257.33 166.49C257.94 166.65 258.55 166.77 259.16 166.85C268.59 168.18 274.84 162.89 274.77 153.37L272.39 121.7Z" fill="#FEBBA0"/>
<path d="M203.05 119.12C202.7 121.36 202.39 123.52 202.15 125.23L162.76 143.47L164.42 121.71H142.07L139.7 153.4C139.64 162.92 145.89 168.2 155.31 166.88C155.92 166.79 156.53 166.67 157.14 166.52C166.91 163.99 199.64 146.3 206.63 135.98C208.7 132.93 207.72 122.66 207.72 122.66C207.72 122.66 207.72 121.24 207.68 119.22C206.14 119.19 204.6 119.16 203.05 119.12Z" fill="#FEBBA0"/>
<path d="M170.14 134.12C178.88 108.27 178.81 108.25 189.54 61.6402C182.36 62.1302 181.62 60.9602 175.96 63.9002C158.98 72.7202 142.99 101.69 138.28 134.12H170.14Z" fill="#FEE6C6"/>
<path d="M247.96 131.57C242.82 113.26 223.59 61.6402 223.59 61.6402C242.82 60.9902 269.06 86.0602 275.34 128.22L247.96 131.57Z" fill="#FEE6C6"/>
<path d="M243.47 91.1402L239.42 124.42" stroke="#EED2AD" stroke-width="1.5925" stroke-miterlimit="10" stroke-linecap="round"/>
<path d="M173.82 96.6002L177.04 132.2" stroke="#EED2AD" stroke-width="1.5925" stroke-miterlimit="10" stroke-linecap="round"/>
</svg>
