<svg width="414" height="351" viewBox="0 0 414 351" fill="none" xmlns="http://www.w3.org/2000/svg">
<path d="M109.01 103.001C94.0399 43.1805 38.1095 2.18273 -23.4629 5.8879C-30.2775 6.29736 -36.2769 1.44009 -37.313 -5.30389L-41.5495 -32.8257C-42.7261 -40.4609 -37.1323 -47.4457 -29.4262 -48.0318C-9.78549 -49.5251 9.78693 -47.8431 28.9297 -43.01C51.8632 -37.2174 73.1985 -27.1616 92.3453 -13.1277C111.492 0.906193 127.499 18.2278 139.919 38.3513C150.287 55.1511 157.769 73.3036 162.25 92.4798C164.009 100.003 159.022 107.433 151.384 108.609L123.848 112.844C117.102 113.884 110.665 109.621 109.01 103.001Z" fill="#FAF8F5"/>
<path d="M277.286 58.8937C338.296 49.7933 384.537 -1.88239 386.81 -63.5015C387.063 -70.3217 392.48 -75.8173 399.294 -76.1986L427.107 -77.7481C434.821 -78.1777 441.238 -71.9355 441.074 -64.216C440.656 -44.53 437.09 -25.2214 430.42 -6.64333C422.433 15.6118 410.354 35.8678 394.524 53.5587C378.694 71.2496 359.897 85.4963 338.658 95.9053C320.928 104.592 302.127 110.28 282.603 112.882C274.945 113.901 268.026 108.221 267.596 100.51L266.046 72.7068C265.673 65.8946 270.536 59.9013 277.286 58.8937Z" fill="#FAF8F5"/>
<path d="M317.164 179.206C348.605 232.251 413.917 255.56 471.862 234.412C478.274 232.072 485.411 235.01 488.332 241.179L500.256 266.343C503.561 273.322 500.201 281.615 492.985 284.379C474.589 291.422 455.353 295.408 435.628 296.243C411.996 297.245 388.678 293.709 366.317 285.73C343.956 277.751 323.669 265.725 306.019 249.991C291.285 236.854 278.924 221.6 269.151 204.502C265.32 197.797 267.974 189.25 274.955 185.94L300.129 174.013C306.3 171.091 313.688 173.336 317.164 179.206Z" fill="#FAF8F5"/>
</svg>
